# xmcd
#
# Track frame offsets: 
#        150
#        22085
#        50727
#        77452
#        92964
#        124230
#        148816
#        164601
#        182254
#        212903
#
# Disc length: 3079 seconds
#
# Revision: 3
# Processed by: cddbd v1.5.2PL0 Copyright (c) Steve Scherf et al.
# Submitted via: ExactAudioCopyFreeDBPlugin 1.0
#
DISCID=8f0c050a
DTITLE=Joe Louis Walker - She's My Money Maker
DYEAR=2003
DGENRE=Blues
TTITLE0=Slow Down GTO
TTITLE1=Poor Man Blues
TTITLE2=Ghetto Life
TTITLE3=Borrowed Time
TTITLE4=No Easy Kind Of Loving
TTITLE5=Slide Her Up And Down
TTITLE6=Born In chicago
TTITLE7=My Judgement Day
TTITLE8=Hookers Blues
TTITLE9=Eight Years Of Lovin'
EXTD=
EXTT0=
EXTT1=
EXTT2=
EXTT3=
EXTT4=
EXTT5=
EXTT6=
EXTT7=
EXTT8=
EXTT9=
PLAYORDER=
